<?xml version="1.0" standalone="no"?>
<!DOCTYPE svg PUBLIC "-//W3C//DTD SVG 20010904//EN"
 "http://www.w3.org/TR/2001/REC-SVG-20010904/DTD/svg10.dtd">
<svg version="1.0" xmlns="http://www.w3.org/2000/svg"
 width="700.000000pt" height="700.000000pt" viewBox="0 0 700.000000 700.000000"
 preserveAspectRatio="xMidYMid meet">
<metadata>
Created by potrace 1.14, written by Peter Selinger 2001-2017
</metadata>
<g transform="translate(0.000000,700.000000) scale(0.100000,-0.100000)"
fill="#000000" stroke="none">
<path d="M3435 5552 c-97 -9 -332 -82 -735 -227 -41 -15 -210 -73 -375 -130
-341 -117 -458 -158 -600 -209 -55 -20 -194 -68 -309 -107 -230 -76 -334 -126
-377 -179 -31 -40 -42 -90 -28 -128 8 -20 5 -37 -11 -73 -23 -55 -28 -104 -16
-173 10 -62 43 -115 116 -186 77 -74 97 -90 227 -176 l111 -74 -3 -42 c-17
-204 -22 -728 -10 -1071 10 -307 66 -431 240 -533 53 -31 65 -43 65 -64 1 -14
3 -58 6 -97 5 -63 4 -73 -10 -73 -29 0 -110 -47 -149 -86 -62 -62 -92 -136
-92 -224 0 -58 6 -85 22 -116 76 -143 265 -172 390 -60 47 43 99 122 109 168
12 50 12 128 2 162 -16 50 -67 107 -122 137 -41 21 -46 28 -47 59 0 19 -2 51
-3 70 l-2 36 89 -39 c165 -71 453 -160 617 -191 14 -2 61 -12 105 -20 44 -8
96 -18 115 -21 19 -3 46 -7 60 -10 14 -2 46 -7 73 -10 26 -3 66 -7 90 -10 248
-30 688 -40 917 -22 83 7 318 38 390 52 14 2 36 7 50 10 14 2 36 7 50 9 42 8
191 46 265 68 39 12 75 22 80 24 24 5 215 79 281 109 43 20 89 50 115 76 39
41 103 156 114 207 3 12 7 32 10 44 12 49 26 125 31 163 3 22 9 63 14 90 5 28
12 66 15 85 3 19 15 80 26 135 11 55 22 114 25 130 8 48 24 138 29 165 5 26
33 187 40 230 2 14 11 66 19 115 9 50 18 107 22 129 8 56 13 78 16 81 2 1 100
55 218 120 244 135 274 154 295 196 24 46 21 172 -7 259 -6 19 -10 54 -9 78 1
39 -3 49 -32 76 -50 45 -217 142 -425 246 -99 49 -184 90 -188 90 -3 0 -40 16
-81 35 -41 19 -76 35 -78 35 -5 0 -481 203 -628 269 -290 128 -370 162 -552
234 -337 133 -467 169 -570 159z"/>
</g>
</svg>
